<?xml version="1.0" encoding="utf-8"?>
<!-- Generator: Adobe Illustrator 12.0.1, SVG Export Plug-In . SVG Version: 6.00 Build 51448)  -->
<!DOCTYPE svg PUBLIC "-//W3C//DTD SVG 1.1//EN" "http://www.w3.org/Graphics/SVG/1.1/DTD/svg11.dtd" [
	<!ENTITY ns_svg "http://www.w3.org/2000/svg">
	<!ENTITY ns_xlink "http://www.w3.org/1999/xlink">
]>
<svg  version="1.1" id="Layer_1" xmlns="&ns_svg;" xmlns:xlink="&ns_xlink;" width="298.688" height="79.93"
	 viewBox="0 0 298.688 79.93" overflow="visible" enable-background="new 0 0 298.688 79.93" xml:space="preserve">
<polygon fill="#0E1616" points="79.469,60.261 115.667,60.261 212.102,60.261 212.102,62.133 106.642,62.133 24.956,62.133 
	1.099,62.133 1.099,61.801 1.099,60.261 "/>
<path fill="#0E1616" d="M40.906,4.625l-0.365,8.689h-0.109h-19.64h-6.106c-0.279,3.423-0.312,7.039-0.468,10.509h6.066h16.272
	c0.08,3.337-0.159,6.69-0.266,10.071H27.28H14.075c-0.136-0.05-0.246-0.116-0.279,0l-0.415,11.449h15.028h10.459
	c-0.083,3.071-0.305,5.847-0.475,8.954H1.298L3.357,4.625H40.906z"/>
<path fill="#0E1616" d="M54.908,4.665l1.448,4.509l11.037,34.77c-0.02,0.066,0.09,0.113,0.103,0.163l0.375-0.531l7.042-15.443
	L67.482,4.665c3.373-0.026,6.753-0.046,10.253,0c1.192,3.115,2.148,6.422,3.347,9.529l0.266-0.335l4.081-9.194
	c3.569-0.123,7.145-0.033,10.771,0L85.741,28.05l4.004,12.079c0.428,1.229,0.816,2.474,1.278,3.669l0.823-1.617l16.522-37.517
	h11.093l-0.382,1.006L106.383,34.03l-6.335,13.938c-0.817,2.172-1.836,4.236-2.782,6.382c-4.433,0.112-9.228,0.146-13.783,0
	l-3.868-12.209l-0.153-0.156l-0.89,1.74l-4.901,10.625h-1.504H59.995l-2.348-6.8L43.722,4.665H54.908z"/>
<path fill="#0E1616" d="M122.669,4.625h37.317c0.093,2.706-0.213,5.418-0.339,8.221l-13.427,0.116l-2.075,37.39l-0.239,3.958
	c-3.357,0.18-6.879-0.047-10.323,0l0.654-19.799l0.843-21.433l-0.149-0.097h-12.674C122.407,10.167,122.467,7.408,122.669,4.625"/>
<path fill="#0E1616" d="M165.83,5.074h15.459l18.155,38.598c0.061,0.027,0.073,0.113,0.173,0.087l0.106-0.156l1.966-38.529h9.895
	h0.179l-1.587,30.606l-0.982,19.069h-16.867l-5.758-12.152l-12.558-26.167l-0.105-0.116l-0.113,0.159l-2.344,38.277h-9.975h-0.152
	l2.384-49.675H165.83z"/>
<path fill="#0E1616" d="M6.671,72.254H4.875c-0.149,0-0.196,0.105-0.206,0.278H4.499V70.58h0.169
	c0.01,0.186,0.057,0.252,0.206,0.252h4.101v0.166c-0.176,0.021-0.226,0.087-0.226,0.239v2.298c0,0.126,0.027,0.246,0.169,0.246h0.07
	v0.159c-1.265,0.697-2.763,1.049-4.476,1.049C2.195,74.989,0,73.761,0,71.244s2.195-3.732,4.513-3.732
	c0.913,0,1.321,0.066,2.264,0.339c0.458,0.126,0.9,0.353,1.006,0.353c0.083,0,0.166-0.054,0.199-0.106l0.163,0.053l-0.896,1.833
	L7.086,69.89c0.013-0.033,0.026-0.087,0.026-0.153c0-0.266-1.381-0.657-2.53-0.657c-1.325,0-2.53,0.697-2.53,2.198
	c0,1.494,1.461,2.151,2.673,2.151c0.753,0,1.368-0.1,1.946-0.266V72.254z"/>
<path fill="#0E1616" d="M13.179,73.21h4.771c0.163,0,0.212-0.066,0.252-0.398h0.169v2.457h-0.169
	c-0.04-0.292-0.09-0.365-0.252-0.365h-7.255v-0.166c0.362-0.026,0.395-0.126,0.395-0.253v-6.468c0-0.119-0.033-0.226-0.395-0.252
	v-0.173h2.875v0.173c-0.358,0.026-0.392,0.133-0.392,0.252V73.21z"/>
<path fill="#0E1616" d="M28.326,71.244c0,2.431-1.962,3.745-4.33,3.745c-2.374,0-4.333-1.314-4.333-3.745s1.959-3.726,4.333-3.726
	C26.363,67.519,28.326,68.813,28.326,71.244 M21.718,71.244c0,1.309,1.066,2.059,2.278,2.059c1.208,0,2.278-0.75,2.278-2.059
	c0-1.302-1.069-2.032-2.278-2.032C22.784,69.212,21.718,69.942,21.718,71.244"/>
<path fill="#0E1616" d="M30.607,68.017c0-0.119-0.043-0.226-0.395-0.245v-0.173h5.296c1.504,0,2.6,0.558,2.6,1.933
	c0,0.83-0.558,1.348-1.335,1.514v0.026c0.927,0.253,1.604,0.751,1.604,1.78c0,1.115-0.827,2.045-2.799,2.045h-5.365v-0.159
	c0.352-0.026,0.395-0.126,0.395-0.253V68.017z M32.692,70.348h1.886c1.188,0,1.5-0.086,1.5-0.645c0-0.551-0.312-0.624-1.5-0.624
	h-1.886V70.348z M32.692,73.436h2.361c0.966,0,1.361-0.226,1.361-0.837c0-0.61-0.395-0.83-1.361-0.83h-2.361V73.436z"/>
<path fill="#0E1616" d="M42.533,73.329c-0.362,1.003-0.441,1.183-0.441,1.275c0,0.073,0.06,0.133,0.249,0.133v0.159h-2.46v-0.159
	c0.189-0.04,0.279-0.106,0.355-0.319c0.126-0.332,2.487-6.441,2.487-6.508c0-0.1-0.163-0.133-0.279-0.139v-0.173h3.619v0.173
	c-0.156,0.006-0.252,0.039-0.252,0.179c0,0.106,1.707,4.25,2.57,6.375c0.143,0.325,0.226,0.412,0.382,0.412v0.159h-2.729v-0.159
	c0.199-0.014,0.266-0.087,0.266-0.159c0-0.066-0.422-1.083-0.468-1.249H42.533z M42.879,72.2h2.59l-1.352-3.294L42.879,72.2z"/>
<path fill="#0E1616" d="M53.065,73.21h4.781c0.163,0,0.209-0.066,0.252-0.398h0.176v2.457h-0.176
	c-0.043-0.292-0.09-0.365-0.252-0.365h-7.242v-0.166c0.339-0.026,0.385-0.126,0.385-0.253v-6.468c0-0.119-0.046-0.226-0.385-0.252
	v-0.173h2.862v0.173c-0.349,0.026-0.402,0.133-0.402,0.252V73.21z"/>
<path fill="#0E1616" d="M71.168,70.295l-0.143-0.1c0.02-0.054,0.033-0.113,0.033-0.213c0-0.279-1.072-0.638-2.258-0.638
	c-1.122,0-2.577,0.491-2.577,1.906c0,1.414,1.455,1.905,2.577,1.905c0.492,0,2.334-0.385,2.334-0.783c0-0.08-0.05-0.133-0.077-0.199
	l0.149-0.106l1.428,2.191l-0.163,0.093c-0.04-0.093-0.096-0.119-0.196-0.119c-0.272,0-1.557,0.757-3.639,0.757
	c-2.225,0-4.575-1.248-4.575-3.738s2.351-3.739,4.575-3.739c1.122,0,1.902,0.146,2.46,0.293c0.538,0.146,0.81,0.266,0.959,0.266
	c0.083,0,0.149-0.04,0.212-0.12l0.149,0.054L71.168,70.295z"/>
<path fill="#0E1616" d="M76.626,73.329c-0.345,1.003-0.442,1.183-0.442,1.275c0,0.073,0.063,0.133,0.252,0.133v0.159H73.99v-0.159
	c0.189-0.04,0.279-0.106,0.345-0.319c0.136-0.332,2.483-6.441,2.483-6.508c0-0.1-0.149-0.133-0.272-0.139v-0.173h3.616v0.173
	c-0.156,0.006-0.249,0.039-0.249,0.179c0,0.106,1.713,4.25,2.577,6.375c0.136,0.325,0.202,0.412,0.388,0.412v0.159h-2.749v-0.159
	c0.206-0.014,0.272-0.087,0.272-0.159c0-0.066-0.428-1.083-0.468-1.249H76.626z M76.988,72.2h2.577l-1.338-3.294L76.988,72.2z"/>
<path fill="#0E1616" d="M86.176,74.903v-0.166c0.345-0.026,0.395-0.126,0.395-0.253v-5.192h-2.394c-0.149,0-0.206,0.066-0.252,0.385
	h-0.156v-2.47h0.156c0.046,0.318,0.103,0.385,0.252,0.385h6.86c0.156,0,0.212-0.066,0.252-0.385h0.163v2.47h-0.163
	c-0.04-0.318-0.097-0.385-0.252-0.385h-2.394v5.192c0,0.127,0.043,0.227,0.402,0.253v0.166H86.176z"/>
<path fill="#0E1616" d="M101.15,74.484c0,0.127,0.046,0.227,0.392,0.253v0.166h-2.869v-0.166c0.355-0.026,0.388-0.126,0.388-0.253
	v-2.563h-3.605v2.563c0,0.127,0.043,0.227,0.388,0.253v0.166h-2.869v-0.166c0.358-0.026,0.389-0.126,0.389-0.253v-6.468
	c0-0.119-0.03-0.226-0.389-0.252v-0.173h2.869v0.173c-0.345,0.026-0.388,0.133-0.388,0.252v2.205h3.605v-2.205
	c0-0.119-0.033-0.226-0.388-0.252v-0.173h2.869v0.173c-0.345,0.026-0.392,0.133-0.392,0.252V74.484z"/>
<path fill="#0E1616" d="M112.157,71.244c0,2.431-1.973,3.745-4.343,3.745c-2.354,0-4.333-1.314-4.333-3.745s1.979-3.726,4.333-3.726
	C110.185,67.519,112.157,68.813,112.157,71.244 M105.543,71.244c0,1.309,1.059,2.059,2.271,2.059c1.215,0,2.285-0.75,2.285-2.059
	c0-1.302-1.069-2.032-2.285-2.032C106.602,69.212,105.543,69.942,105.543,71.244"/>
<path fill="#0E1616" d="M116.57,73.21h4.774c0.163,0,0.212-0.066,0.252-0.398h0.163v2.457h-0.163
	c-0.04-0.292-0.09-0.365-0.252-0.365h-7.248v-0.166c0.345-0.026,0.388-0.126,0.388-0.253v-6.468c0-0.119-0.043-0.226-0.388-0.252
	v-0.173h2.869v0.173c-0.358,0.026-0.395,0.133-0.395,0.252V73.21z"/>
<path fill="#0E1616" d="M123.642,74.903v-0.166c0.362-0.026,0.395-0.126,0.395-0.253v-6.468c0-0.119-0.033-0.226-0.395-0.252v-0.173
	h2.872v0.173c-0.349,0.026-0.389,0.133-0.389,0.252v6.468c0,0.127,0.04,0.227,0.389,0.253v0.166H123.642z"/>
<path fill="#0E1616" d="M135.834,70.295l-0.143-0.1c0.013-0.054,0.023-0.113,0.023-0.213c0-0.279-1.063-0.638-2.245-0.638
	c-1.129,0-2.593,0.491-2.593,1.906c0,1.414,1.464,1.905,2.593,1.905c0.488,0,2.324-0.385,2.324-0.783c0-0.08-0.053-0.133-0.08-0.199
	l0.156-0.106l1.435,2.191l-0.179,0.093c-0.027-0.093-0.093-0.119-0.189-0.119c-0.272,0-1.564,0.757-3.629,0.757
	c-2.225,0-4.592-1.248-4.592-3.738s2.368-3.739,4.592-3.739c1.105,0,1.889,0.146,2.454,0.293c0.538,0.146,0.817,0.266,0.959,0.266
	c0.086,0,0.149-0.04,0.203-0.12l0.163,0.054L135.834,70.295z"/>
<path fill="#0E1616" d="M143.962,68.017c0-0.119-0.043-0.226-0.389-0.252v-0.173h3.354v0.173c-0.322,0.013-0.402,0.1-0.402,0.186
	c0,0.153,2.414,2.703,3.387,3.772v-3.706c0-0.166-0.116-0.239-0.299-0.252v-0.173h2.544v0.173c-0.353,0.026-0.393,0.133-0.393,0.252
	v6.468c0,0.127,0.04,0.227,0.393,0.253v0.166h-2.646v-0.166c0.259,0,0.332-0.06,0.332-0.153c0-0.179-0.352-0.352-4.024-4.455v4.355
	c0,0.127,0.04,0.227,0.395,0.253v0.166h-2.64v-0.166c0.345-0.026,0.389-0.126,0.389-0.253V68.017z"/>
<path fill="#0E1616" d="M160.152,72.24h-0.153c-0.039-0.186-0.146-0.318-0.418-0.318h-2.59v1.288h4.456
	c0.152,0,0.212-0.066,0.252-0.412h0.166v2.411h-0.166c-0.04-0.232-0.1-0.306-0.252-0.306h-6.927v-0.166
	c0.353-0.026,0.393-0.126,0.393-0.253v-6.468c0-0.119-0.04-0.226-0.393-0.252v-0.173h6.927c0.152,0,0.212-0.066,0.252-0.385h0.166
	v2.417h-0.166c-0.04-0.319-0.1-0.386-0.252-0.386h-4.456v1.149h2.59c0.272,0,0.379-0.14,0.418-0.313h0.153V72.24z"/>
<path fill="#0E1616" d="M165.883,74.903v-0.166c0.346-0.026,0.398-0.126,0.398-0.253v-5.192h-2.397
	c-0.152,0-0.205,0.066-0.266,0.385h-0.152v-2.47h0.152c0.061,0.318,0.113,0.385,0.266,0.385h6.86c0.146,0,0.206-0.066,0.252-0.385
	h0.153v2.47h-0.153c-0.046-0.318-0.106-0.385-0.252-0.385h-2.384v5.192c0,0.127,0.033,0.227,0.392,0.253v0.166H165.883z"/>
<path fill="#0E1616" d="M174.131,74.903v-0.166c0.152-0.026,0.278-0.06,0.278-0.239c0-0.093-2.104-6.335-2.164-6.574
	c-0.027-0.119-0.094-0.159-0.14-0.159v-0.173h2.536v0.173c-0.166,0.026-0.292,0.053-0.292,0.212c0,0.146,1.017,3.168,1.368,4.29
	h0.014c0.345-1.049,1.308-4.157,1.308-4.29c0-0.159-0.179-0.186-0.292-0.212v-0.173h3.301v0.173
	c-0.113,0.04-0.232,0.066-0.232,0.212c0,0.08,0.969,3.374,1.155,4.29h0.04c0.166-0.664,1.354-4.091,1.354-4.263
	c0-0.173-0.153-0.199-0.279-0.239v-0.173h2.324v0.173c-0.14,0.013-0.206,0.133-0.232,0.266C184.132,68.27,182,74.379,182,74.545
	s0.152,0.179,0.266,0.192v0.166h-2.889v-0.166c0.199-0.026,0.285-0.087,0.285-0.192c0-0.452-0.823-3.009-1.341-4.868h-0.033
	c-0.452,1.62-1.461,4.615-1.461,4.868c0,0.105,0.133,0.192,0.299,0.192v0.166H174.131z"/>
<path fill="#0E1616" d="M194.305,71.244c0,2.431-1.979,3.745-4.343,3.745c-2.357,0-4.336-1.314-4.336-3.745s1.979-3.726,4.336-3.726
	C192.326,67.519,194.305,68.813,194.305,71.244 M187.685,71.244c0,1.309,1.068,2.059,2.277,2.059c1.222,0,2.284-0.75,2.284-2.059
	c0-1.302-1.063-2.032-2.284-2.032C188.753,69.212,187.685,69.942,187.685,71.244"/>
<path fill="#0E1616" d="M198.011,74.484c0,0.127,0.046,0.227,0.392,0.253v0.166h-2.849v-0.166c0.332-0.026,0.371-0.126,0.371-0.253
	v-6.468c0-0.119-0.039-0.226-0.371-0.252v-0.173h5.086c2.046,0,2.909,0.73,2.909,2.311c0,1.275-0.837,1.966-1.979,2.271l1.647,2.311
	c0.119,0.18,0.252,0.253,0.411,0.253v0.166h-2.908v-0.166c0.199-0.014,0.306-0.087,0.306-0.253c0-0.126-1.468-2.031-1.634-2.337
	h-1.381V74.484z M198.011,70.68h2.351c0.804,0,1.063-0.358,1.063-0.764c0-0.398-0.259-0.764-1.063-0.764h-2.351V70.68z"/>
<path fill="#0E1616" d="M211.192,74.903v-0.166c0.172,0,0.266,0,0.266-0.18c0-0.173-1.707-2.609-1.906-2.955l-1.368,1.209v1.673
	c0,0.127,0.04,0.227,0.392,0.253v0.166h-2.868v-0.166c0.358-0.026,0.392-0.126,0.392-0.253v-6.468c0-0.119-0.033-0.226-0.392-0.252
	v-0.173h2.868v0.173c-0.352,0.026-0.392,0.133-0.392,0.252v2.497h0.1c1.109-1.089,2.716-2.41,2.716-2.563
	c0-0.173-0.1-0.173-0.238-0.186v-0.173h3.52v0.173c-0.365,0.026-0.426,0.133-0.771,0.438l-2.411,2.071l2.836,4.237
	c0.159,0.226,0.252,0.226,0.451,0.226v0.166H211.192z"/>
<path fill="#0E1616" d="M297.168,9.5c0.657,0.647,0.977,1.438,0.977,2.348c0,0.926-0.319,1.713-0.977,2.367
	c-0.638,0.644-1.421,0.979-2.337,0.979c-0.924,0-1.7-0.335-2.357-0.979c-0.625-0.654-0.963-1.441-0.963-2.367
	c0-0.91,0.338-1.7,0.976-2.348c0.645-0.644,1.421-0.969,2.345-0.969C295.747,8.53,296.53,8.855,297.168,9.5 M297.56,9.128
	c-0.75-0.75-1.66-1.123-2.729-1.123c-1.063,0-1.966,0.372-2.717,1.123c-0.757,0.753-1.129,1.66-1.129,2.719
	c0,1.076,0.372,1.985,1.109,2.732c0.744,0.764,1.66,1.136,2.736,1.136c1.068,0,1.979-0.372,2.729-1.136
	c0.751-0.753,1.129-1.667,1.129-2.732C298.688,10.788,298.311,9.881,297.56,9.128 M295.401,11.671
	c-0.166,0.06-0.392,0.093-0.71,0.093h-0.671v-1.527h0.624c0.419,0,0.724,0.04,0.91,0.156c0.179,0.11,0.278,0.306,0.278,0.618
	C295.833,11.329,295.681,11.555,295.401,11.671 M293.271,13.956h0.75v-1.673h0.584c0.393,0,0.671,0.046,0.824,0.136
	c0.266,0.163,0.404,0.481,0.404,0.973v0.338l0.021,0.136c0,0.013,0.007,0.037,0.007,0.05c0.006,0.013,0.006,0.027,0.013,0.04h0.685
	l-0.014-0.053c-0.014-0.037-0.026-0.103-0.026-0.219c-0.021-0.116-0.021-0.219-0.021-0.312v-0.312c0-0.212-0.079-0.438-0.232-0.661
	c-0.152-0.226-0.398-0.355-0.724-0.415c0.246-0.04,0.458-0.11,0.611-0.196c0.278-0.186,0.405-0.465,0.405-0.836
	c0-0.538-0.213-0.893-0.645-1.076c-0.246-0.103-0.638-0.149-1.155-0.149h-1.487V13.956z"/>
<path fill="#0E1616" d="M262.597,0.784c0.199,0.169,0.393,0.339,0.571,0.525c2.61,2.603,4.835,6.704,6.567,11.797
	c2.922-0.966,6.408-1.899,9.351-1.627C274.896,5.884,269.37,2.301,262.597,0.784"/>
<path fill="#0E1616" d="M234.813,67.2c2.604-0.645,5.379-1.162,8.261-1.561c-0.598-1.913-1.129-3.958-1.587-6.109
	c-1.016,3.181-3.778,5.83-6.674,7.497V67.2z"/>
<path fill="#0E1616" d="M232.502,13.424c0.558,0.136,1.115,0.259,1.673,0.382l2.271-2.563l3.579,2.909l2.909,0.07
	c2.623-7.936,6.288-11.963,9.21-13.995c-5.498,0.823-10.864,3.632-15.406,8.161C235.198,9.915,233.783,11.608,232.502,13.424"/>
<path fill="#0E1616" d="M270.261,48.865c-1.116-2.012-3.58-5.14-8.274-5.595v-4.489c-2.483-3.147-1.8-6.936-1.8-10.94l2.676-0.026
	v-2.271l-2.483,0.026v-2.912h-2.337l-0.054,2.912l-2.735-0.026v2.271l2.683,0.026c0.093,3.918,0.783,7.846-1.634,10.94v4.489
	c-4.768,0.916-9.762,6.192-11.063,11c-0.372,0.956-0.491,2.032-0.604,3.095l-1.72,0.007c0.545,2.875,1.222,5.571,2.006,8.042
	c3.745-0.438,7.649-0.671,11.688-0.671c3.971,0,7.843,0.232,11.555,0.657c1.706-5.26,2.935-11.595,3.439-18.421
	C271.17,47.63,270.712,48.274,270.261,48.865"/>
<path fill="#0E1616" d="M238.465,18.408l1.448,11.887c0.385-4.563,1.009-8.487,1.826-11.851L238.465,18.408z"/>
<path fill="#0E1616" d="M256.607,66.543c-3.818,0-7.537,0.212-11.11,0.598c1.588,4.416,3.566,7.955,5.798,10.199
	c1.72,1.714,3.493,2.59,5.299,2.59h0.014l0,0c4.21-0.006,8.147-5.014,10.957-12.789C264.058,66.742,260.366,66.543,256.607,66.543"
	/>
<path fill="#0E1616" d="M273.567,43.895c-0.313,7.959-1.594,15.516-3.586,21.731c3.639,0.491,7.079,1.195,10.246,2.059
	c5.346-6.919,8.215-15.938,8.022-25.427c-4.403,0.235-9.085,0.429-14.019,0.558C274.013,43.181,273.786,43.543,273.567,43.895"/>
<path fill="#0E1616" d="M244.761,14.261l20.359,0.448c0.744-0.222,1.74-0.598,2.896-1.013c-1.62-4.841-3.719-8.719-6.116-11.116
	c-1.48-1.504-3.034-2.354-4.621-2.55c-0.166,0-0.339-0.017-0.492-0.03C255.021,0.382,248.731,2.55,244.761,14.261"/>
<path fill="#0E1616" d="M259.071,18.634l-15.52-0.163c-1.016,4.064-1.746,9.021-2.052,15.074
	C247.337,26.778,254.196,21.177,259.071,18.634"/>
<path fill="#0E1616" d="M271.715,2.444c4.402,2.603,7.776,6.206,10.333,10.22c1.407-0.389,2.689-0.804,3.831-1.239
	C281.868,7.564,277.047,4.476,271.715,2.444"/>
<path fill="#0E1616" d="M250.757,79.279c-0.246-0.213-0.484-0.425-0.724-0.678c-2.523-2.503-4.688-6.401-6.368-11.223
	c-3.128,0.412-6.109,0.977-8.893,1.688l-0.013,0.238C239.089,74.432,244.574,77.925,250.757,79.279"/>
<path fill="#0E1616" d="M287.233,12.813c-1.234,0.515-2.656,0.993-4.236,1.441c5.166,9.038,6.607,19.719,6.973,26.051v0.073
	c2.829-0.176,5.538-0.358,8.108-0.558C298.031,29.412,293.935,19.932,287.233,12.813"/>
<path fill="#0E1616" d="M284.073,20.536c-0.239,2.314-1.209,6.535-4.636,13.321l-2.225,4.034c-0.624,0.986-1.248,2.032-1.893,3.102
	c4.516-0.13,8.806-0.306,12.863-0.525v-0.06C287.871,34.913,286.835,27.522,284.073,20.536"/>
<path fill="#0E1616" d="M290.05,42.168c0.172,9.659-2.656,18.876-7.982,26.062c1.036,0.318,2.032,0.664,3.002,1.016
	c7.623-6.979,12.511-16.741,12.976-27.635C295.508,41.823,292.839,42.006,290.05,42.168"/>
<path fill="#0E1616" d="M230.649,12.969c1.434-2.122,3.034-4.094,4.808-5.847c1.767-1.756,3.632-3.25,5.585-4.502
	c-5.366,2.108-10.174,5.269-14.145,9.227C228.086,12.255,229.341,12.621,230.649,12.969"/>
<path fill="#0E1616" d="M231.552,68.09c-4.907-6.826-8.055-15.857-8.692-26.167c-2.709-0.17-5.286-0.346-7.71-0.564
	c0.393,11,5.307,20.854,12.989,27.887C229.234,68.84,230.37,68.455,231.552,68.09"/>
<path fill="#0E1616" d="M262.929,78.695c-0.232,0.226-0.471,0.444-0.71,0.657c5.877-1.229,11.335-4.323,15.798-9.045
	c0.325-0.365,0.65-0.73,0.97-1.103c-2.981-0.79-6.216-1.407-9.603-1.853C267.644,72.214,265.452,76.172,262.929,78.695"/>
<path fill="#0E1616" d="M222.76,40.123c-0.266-8.935,2.258-18.096,6.866-25.577c-1.434-0.382-2.795-0.817-4.09-1.278
	c-6.389,7.026-10.3,16.22-10.406,26.304C217.521,39.774,220.084,39.963,222.76,40.123"/>
<path fill="#0E1616" d="M234.646,20.423l-3.36-3.36l1.521-1.727c-0.459-0.103-0.924-0.213-1.368-0.322
	c-4.642,7.305-7.172,16.376-6.88,25.214c3.938,0.232,8.108,0.415,12.432,0.558L234.646,20.423z"/>
<path fill="#0E1616" d="M241.546,77.486c-3.307-1.992-6.281-4.662-8.838-7.862c-1.043,0.306-2.053,0.624-3.009,0.97
	C233.192,73.495,237.184,75.84,241.546,77.486"/>
<path fill="#0E1616" d="M235.981,43.271l0.491-0.707c-4.097-0.137-8.068-0.313-11.82-0.531c0.618,9.171,3.254,17.252,7.371,23.581
	C230.716,58.84,233.577,48.5,235.981,43.271"/>
<path fill="#0E1616" d="M272.239,77.261c4.137-1.634,7.929-3.905,11.289-6.661c-0.863-0.305-1.753-0.584-2.649-0.856
	c-0.498,0.611-1.017,1.202-1.574,1.78C277.167,73.814,274.776,75.727,272.239,77.261"/>
</svg>
