<svg xmlns="http://www.w3.org/2000/svg" viewBox="3847 108.996 40 37.004"><defs><style>.a{fill:#fff;}</style></defs><g transform="translate(2022 -18)"><path class="a" d="M38.585,26.3l.777-.777-1.331-1.331-.777.777a6.741,6.741,0,0,0-8.044,0l-.777-.777a10.255,10.255,0,0,0,1.72-5.687A10.09,10.09,0,0,0,27.1,11.234l.666-.666L29.1,11.9l1.331-1.331,2.913,2.913,1.331-1.331-1.637-1.637,1.331-1.331L33.093,7.906l1.331-1.331L35.7,7.85l1.331-1.331,1.637,1.637L40,6.824,35.728,2.635,37.06,1.3,35.728,0,25.659,10.042a10.261,10.261,0,0,0-11.373,0L4.244,0,2.913,1.331,4.244,2.663,0,6.879,1.331,8.211,2.968,6.574,4.3,7.906,5.576,6.63,6.907,7.961,5.631,9.237l1.3,1.3L5.3,12.178,6.63,13.509,9.542,10.6l1.331,1.331L12.205,10.6l.666.666A10.214,10.214,0,0,0,11.54,24.216l-.777.749a6.741,6.741,0,0,0-8.044,0l-.777-.777L.61,25.52l.777.777a6.741,6.741,0,0,0,0,8.044l-.777.777,1.331,1.331.777-.777a6.741,6.741,0,0,0,8.044,0l.777.777,1.331-1.331-.777-.777a6.741,6.741,0,0,0,0-8.044l.638-.638a10.181,10.181,0,0,0,14.535,0l.638.638a6.741,6.741,0,0,0,0,8.044l-.777.777,1.331,1.331.777-.777a6.741,6.741,0,0,0,8.044,0l.777.777,1.331-1.331-.777-.777A6.784,6.784,0,0,0,38.585,26.3Zm-27.24,7.656-1,1L6.713,31.318,3.079,34.951l-1-1,3.634-3.634L2.108,26.685l1-1L6.741,29.32l3.634-3.634,1,1L7.739,30.319Zm2.691-14.646-.971-1,1-1L16.671,14.7l1,1-2.635,2.607,2.607,2.607-1,1Zm4.355,4.882-1.3-.527,4.466-10.791,1.3.527Zm7.545-4.882-2.607,2.607-1-1,2.607-2.607L22.33,15.7l1-1,2.607,2.607.971,1ZM37.864,33.953l-1,1-3.634-3.634L29.6,34.951l-1-1,3.634-3.634L28.6,26.685l1-1,3.634,3.634,3.634-3.634,1,1L34.23,30.319Z" transform="translate(1825 126.996)"/></g></svg>